<?xml version="1.0" standalone="no"?>
<!DOCTYPE svg PUBLIC "-//W3C//DTD SVG 20010904//EN"
 "http://www.w3.org/TR/2001/REC-SVG-20010904/DTD/svg10.dtd">
<svg version="1.0" xmlns="http://www.w3.org/2000/svg"
 width="256.000000pt" height="256.000000pt" viewBox="0 0 256.000000 256.000000"
 preserveAspectRatio="xMidYMid meet">
<metadata>
Created by potrace 1.15, written by Peter Selinger 2001-2017
</metadata>
<g transform="translate(0.000000,256.000000) scale(0.100000,-0.100000)"
fill="#000000" stroke="none">
<path d="M1048 2544 c-261 -47 -496 -173 -685 -367 -106 -109 -167 -193 -228
-313 -93 -181 -135 -365 -135 -584 0 -364 127 -668 383 -917 109 -106 193
-167 313 -228 181 -93 365 -135 584 -135 219 0 403 42 584 135 120 61 204 122
313 228 197 192 321 426 368 693 19 112 19 336 0 448 -33 186 -112 375 -221
527 -67 92 -213 237 -305 302 -144 102 -336 181 -515 212 -108 19 -350 18
-456 -1z m602 -474 c0 -70 110 -180 180 -180 11 0 20 -4 20 -10 0 -5 -9 -10
-20 -10 -10 0 -35 -7 -53 -16 l-34 -16 38 -75 c22 -41 39 -84 40 -96 0 -12 3
-16 6 -9 7 17 23 15 23 -4 0 -21 63 -84 84 -84 9 0 16 -4 16 -10 0 -5 -6 -10
-14 -10 -35 0 -106 -92 -106 -138 0 -41 -73 -162 -144 -239 -105 -113 -118
-145 -124 -312 -7 -193 12 -181 -282 -181 -294 0 -275 -12 -282 181 -6 164
-20 202 -114 302 -36 38 -79 90 -95 116 -89 140 -92 333 -7 495 42 80 164 202
244 244 161 84 352 83 510 -3 l61 -33 17 34 c9 19 16 44 16 54 0 11 5 20 10
20 6 0 10 -9 10 -20z"/>
</g>
</svg>
